<?xml version="1.0" encoding="utf-8"?><!-- Uploaded to: SVG Repo, www.svgrepo.com, Generator: SVG Repo Mixer Tools -->
<svg fill="#000000" width="800px" height="800px" viewBox="0 0 24 24" id="log-in-4" data-name="Flat Color" xmlns="http://www.w3.org/2000/svg" class="icon flat-color"><path id="secondary" d="M17.62,11.31,14.5,9.17a1,1,0,0,0-1.5.69V11H3a1,1,0,0,0,0,2H13v1.14a1,1,0,0,0,1.5.69l3.12-2.14A.82.82,0,0,0,17.62,11.31Z" style="fill: rgb(44, 169, 188);"></path><path id="primary" d="M20,21H9a2,2,0,0,1-2-2V16a1,1,0,0,1,2,0v3H20V5H9V8A1,1,0,0,1,7,8V5A2,2,0,0,1,9,3H20a2,2,0,0,1,2,2V19A2,2,0,0,1,20,21Z" style="fill: rgb(0, 0, 0);"></path></svg>